<?xml version="1.0" encoding="utf-8"?>
<!-- Generator: Adobe Illustrator 26.0.2, SVG Export Plug-In . SVG Version: 6.00 Build 0)  -->
<svg version="1.1" id="Layer_1" xmlns="http://www.w3.org/2000/svg" xmlns:xlink="http://www.w3.org/1999/xlink" x="0px" y="0px"
	 viewBox="0 0 841.9 595.3" style="enable-background:new 0 0 841.9 595.3;" xml:space="preserve">
<g>
	<path d="M126.1,295.2c0-16.3,28.1-49.6,50.3-49.6c19.9,0-16.9,41.9-22.9,44.1c-3.6,1.3-4.2,3.2-4,5c0.4,2.9,4.7,10.4,15.1,10.4
		c12,0,39.1-25.1,39.1-47.4c0-15.7-13.3-29.2-35.7-29.2c-31.9,0-68.1,32-68.1,61.6c0,31.1,51.9,43.7,51.9,59.6
		c0,10-18.6,26.3-31.1,26.3c-13.6,0-3.2-21.2,6.7-28.8c3.8-2.9,1.5-10.8-6.6-10.8c-10.9,0-30.6,16.3-30.3,37.1
		c0.2,11.5,10.9,24.5,31.7,24.5c23.1,0,51.3-24.5,51.3-47.2C173.5,325.1,126.1,315.9,126.1,295.2z"/>
	<path d="M735.3,292.4c0,10.6-18.8,30.2-29.3,30.2c-10.4,0-14.4-10.1-14.4-16.9c0-20,15.8-39.9,22.8-45.2c6.2-4.6,15.4-7,11.9,2.9
		c-3.5,9.9-6.7,13.7-10.2,17.2c-3.5,3.5-0.2,7.8,7.1,7.8c13.2,0,18.5-17,18.5-22.2c0-19-13.3-22.7-21.1-22.7
		c-22.1,0-45.5,29.9-53.5,64c-10.9,14.3-17.2,13.7-16.5,2.2c0.9-17,15.5-42.2,19.8-51.4c4.3-9.2-17.5-15.3-20.8-10.2
		c-9.2,14.1-22.3,47.6-22.3,47.6s-3.7,6.1-9.9,14.8c-10.8,15.3-16.2,9.9-15.4,1.3c1.9-20.6,17.7-53.8,17.7-53.8s6.9,0,12.5,4.1
		c5.6,4.1,9.2-3.2,9.2-13.1s-14.1-7.9-14.1-7.9s5-11,8.3-15.8c3.2-4.8-13.4-17.2-17.8-11.8c-4.4,5.3-17.2,30.5-17.2,30.5
		s-13,1.1-18.3,7.2c-5.4,6.1-1.6,14.3,0.4,12.3c2-2,6.6-4,10.8-4c-5.6,8.7-14.9,32.8-14.9,32.8c-5.3,10-17.7,23-17.7,23
		c-2.3-8.2-23.6-15.7-23.6-27.2c0-6.5,8.3-17.1,14.1-21.2c8-5.7,14-2.1,9,7.4c-5,9.5-11.2,10.6-11.2,13.5c0,2.9,3.6,7.9,9.5,7.9
		c7.4,0,18-13.6,18-25.6s-9.1-21-23.3-21c-18.8,0-29.6,14.8-34.3,22.5c-3.9,6.4-6.3,16.4-1.3,21.4c-22,45.5-28.6,34.8-27.7,26.9
		c2.4-17.2,8.5-34.3,17.9-45.6c4.2-5.1-6.5-14.8-13-14.8c-3.4,0-5.3,0.8-9.9,5.9c0,0-3.5-8-13.4-8c-22.4,0-40.3,33.8-45.6,53.9
		c-16.1,29.1-23.9,24.2-23.3,9.7c0.8-19.1,14.4-48.3,14.4-48.3s13.8-1.6,17,0.4c3.1,2,6.3,0.5,6.3-7.4c0-7.9-5.7-11.2-16-11.2
		c0,0,4.8-11.5,8-17.7c3.1-6.2-11.6-16.2-15.4-11.2c-5.7,7.6-18.1,33.6-18.1,33.6s-5.9,0.9-14,3.6c-10.1,3.4-11,20.1-5.5,17.3
		c2.3-1.1,9.2-4.3,12.8-4.3c-8.7,21-32.2,60-47.3,60c-13.7,0-15.9-15.6-15.9-15.6c23-1.6,44.3-23.8,44.3-36c0-12.2-5.5-20-15.8-20
		c-15.4,0-29.1,19.9-42.3,40.9c4.2-14.5,23.4-55.6,27.1-62.3c3.5-6.3-15.7-13.8-17.4-11.1c-7.6,11.6-28.6,58.4-35,83.1
		c-30,39.2-43.9,26.1-43.9,11.1c0-21.5,17.8-39.5,23.4-43.9c5.6-4.3,11.1-3.2,8.4,4c-2.6,7.2-6.6,12.7-9.9,14
		c-3.2,1.3-2.8,8.5,6.9,8.5c8.2,0,17.6-12.1,17.6-23.7c0-11.5-9-16.3-17.3-16.3c-33,0-52.5,49.3-54,63.7
		c-10.4,14.5-14.5,11.7-14.5,5c0-12.9,12.4-39.2,19.3-52.7c2.8-5.4-12.2-14.3-16.4-10.1c-9.3,9.3-26.2,43.8-28.7,63.6
		c-2.5,19.8,6.2,31.3,17.3,31.3s26.2-18.6,26.2-18.6c1.8,8,11.7,15.8,21.4,15.8c9.7,0,27.7-10.8,38-25.5
		c-3.3,20.9,8.3,22.6,13.3,22.6s8.8-1.2,7.6-6.1s0.5-18.5,7.9-28.5c0,7.5,5.7,33.1,25.7,33.1c11.6,0,25.4-13.8,35.9-30.3
		c0,17.4,9.6,26.6,21,26.6c11.3,0,23-8.6,30-20.1c0.3,3.5,4.9,17.5,16.2,17.5c11.3,0,20.7-11.7,25.8-21c1.3,12.3,8.1,18.9,15.3,18.9
		c7.2,0,16.4-5.9,21.1-15.1c3.2,7.2,11.2,16.7,27.5,16.7s36.1-20.9,42.1-33.5c0.3,7,4.6,25.8,20.3,25.8c15.6,0,30.6-22.9,30.6-22.9
		c7,35.5,35.9,16.9,44.7,0.2c0,0,7.9,23.1,29.1,23.1c26.7,0,49-33.7,49.5-51.3C747.5,286.9,735.3,287.5,735.3,292.4z M321.4,311.4
		c6-10.9,26.8-39.7,33.7-35.7C362,279.6,335.7,308.3,321.4,311.4z M471.5,304.1c-6.9,16.5-16.6,28.2-21.6,26.1
		c-5.1-2.1-3.6-17.2,3.3-33.8c6.9-16.5,16.6-28.2,21.7-26.1C479.9,272.5,478.4,287.6,471.5,304.1z M511.5,327
		c5.8-7.1,13.8-25,13.8-25s15.5,9.1,15.5,18.9C540.8,332.9,519.7,335.1,511.5,327z"/>
	<ellipse transform="matrix(0.429 -0.9033 0.9033 0.429 -99.3683 349.2017)" cx="226.5" cy="253.2" rx="16.4" ry="11.8"/>
	<ellipse transform="matrix(0.429 -0.9033 0.9033 0.429 177.9526 732.6579)" cx="668.5" cy="225.6" rx="16.4" ry="11.8"/>
</g>
</svg>
